<svg width="2209" height="1078" viewBox="0 0 2209 1078" fill="none" xmlns="http://www.w3.org/2000/svg">
<g opacity="0.5" clip-path="url(#clip0_778_2)">
<path d="M0.544189 1077.24L420.79 1077.5C425.691 1077.5 430.019 1074.01 432.712 1068.63H500.759C513.653 1068.63 524.074 1058.21 524.074 1045.31V1019.4C556.839 1018.25 584.614 1018.12 600.952 1019.93C669.44 1027.39 830.261 1052.69 858.566 1043.77C881.969 1036.35 935.002 976.922 956.772 938.951C958.626 935.684 960.26 932.593 961.629 929.679L1317.45 958.466L1323.72 881.024L1357.72 879.037L1340.54 584.057L766.763 617.436L721.81 613.816L721.281 620.085L720.044 620.173L720.53 628.871L709.402 766.272C695.758 771.217 683.438 776.604 674.165 782.211C669.484 781.858 664.936 781.682 660.476 781.682C600.157 781.682 586.91 792.543 524.03 814.266V800.799C524.03 787.907 513.564 777.487 500.715 777.487H432.182C429.489 772.675 425.382 769.628 420.79 769.628L21.7839 769.363" fill="#527D82"/>
<path d="M0.544189 923.233L384.36 923.542L0.544189 923.233Z" fill="#527D82"/>
<path d="M1789.4 37.6317H1721.36C1708.46 37.6317 1698.04 48.0516 1698.04 60.944V86.8612C1665.28 88.0091 1637.5 88.1416 1621.16 86.3314C1552.68 78.8697 1391.85 53.5706 1363.55 62.4893C1340.28 69.8185 1287.86 128.496 1265.78 166.511C1265.74 166.511 1265.7 166.511 1265.7 166.467C1263.09 171.015 1260.97 175.209 1259.34 179.006L945.511 179.006V428.377L1426.56 428.377V364.047C1462.86 355.879 1519.47 341.221 1547.91 323.957C1552.59 324.311 1557.13 324.487 1561.59 324.487C1621.91 324.487 1635.16 313.626 1698.04 291.903V305.369C1698.04 318.262 1708.51 328.682 1721.36 328.682H1789.93C1792.63 333.494 1796.73 336.541 1801.33 336.541L2208.46 336.806V182.98L1837.8 182.671L2208.54 182.98V28.9778L1801.37 28.713C1796.42 28.7571 1792.05 32.2451 1789.4 37.6317ZM1310.38 175.518C1311.62 175.651 1312.81 175.783 1314 175.872C1301.77 177.284 1288.75 178.3 1278.41 179.006H1265.3C1274.62 178.521 1292.9 177.373 1310.38 175.518Z" fill="#527D82"/>
<path d="M1371.98 342.767C1371.98 342.767 1528.7 313.847 1543.18 280.071C1557.66 246.339 1468.42 202.937 1468.42 202.937C1468.42 202.937 1396.09 198.125 1388.85 210.178C1381.61 222.232 1371.98 342.767 1371.98 342.767Z" fill="#E9C4AC"/>
<path d="M924.228 150.75V400.12L1405.28 400.12V150.75L924.228 150.75Z" fill="white"/>
<path d="M970.549 313.759C973.286 309.697 976.819 307.533 981.191 307.268C989.978 307.666 994.614 312.346 995.144 321.309L995.1 347.491H948.603V322.81C949.044 314.951 953.636 310.845 962.291 310.403C966.398 310.535 969.18 311.639 970.549 313.759ZM967.237 338.175V325.15C967.193 321.397 965.25 319.498 961.452 319.366C959.156 319.454 957.964 321.353 957.831 325.062V338.175H967.237V338.175ZM987.858 338.175V322.986C987.814 318.615 985.562 316.408 981.146 316.275C978.188 316.364 976.598 318.571 976.51 322.898V338.175H987.858V338.175Z" fill="#78787A"/>
<path d="M948.514 297.996V288.724H995.1V297.996H948.514Z" fill="#78787A"/>
<path d="M948.558 269.96H986.401V245.146H995.1V279.276H948.558V269.96Z" fill="#78787A"/>
<path d="M948.558 228.059H986.401V203.246H995.1V237.375H948.558V228.059Z" fill="#78787A"/>
<path d="M1012.45 162.45V388.332H1020.53V162.45H1012.45Z" fill="#78787A"/>
<path d="M1062.13 298.438V367.712H1068.89V298.438H1062.13Z" fill="#8D8D8E"/>
<path d="M1075.64 239.186V367.712H1082.4V239.186H1075.64Z" fill="#8D8D8E"/>
<path d="M1102.27 238.7V367.712H1109.51V238.7H1102.27Z" fill="#8D8D8E"/>
<path d="M1088.71 203.467V367.712H1095.69V203.467H1088.71Z" fill="#8D8D8E"/>
<path d="M1117.42 169.205V367.712H1124.17V169.205H1117.42Z" fill="#8D8D8E"/>
<path d="M1065.13 373.099C1067.52 373.099 1069.42 374.998 1069.42 377.382C1069.42 379.766 1067.52 381.665 1065.13 381.665C1062.75 381.665 1060.85 379.766 1060.85 377.382C1060.85 374.998 1062.75 373.099 1065.13 373.099Z" fill="#BC5555"/>
<path d="M1079.26 373.099C1081.65 373.099 1083.55 374.998 1083.55 377.382C1083.55 379.766 1081.65 381.665 1079.26 381.665C1076.88 381.665 1074.98 379.766 1074.98 377.382C1074.98 374.998 1076.88 373.099 1079.26 373.099Z" fill="#BC5555"/>
<path d="M1091.94 373.099C1094.32 373.099 1096.22 374.998 1096.22 377.382C1096.22 379.766 1094.32 381.665 1091.94 381.665C1089.55 381.665 1087.65 379.766 1087.65 377.382C1087.65 374.998 1089.55 373.099 1091.94 373.099Z" fill="#BC5555"/>
<path d="M1106.07 373.099C1108.45 373.099 1110.35 374.998 1110.35 377.382C1110.35 379.766 1108.45 381.665 1106.07 381.665C1103.68 381.665 1101.78 379.766 1101.78 377.382C1101.78 374.998 1103.68 373.099 1106.07 373.099Z" fill="#BC5555"/>
<path d="M1121.04 373.099C1123.42 373.099 1125.32 374.998 1125.32 377.382C1125.32 379.766 1123.42 381.665 1121.04 381.665C1118.65 381.665 1116.75 379.766 1116.75 377.382C1116.75 374.998 1118.65 373.099 1121.04 373.099Z" fill="#BC5555"/>
<path d="M1307.12 377.294V380.075H1382.93V377.294H1307.12Z" fill="#78787A"/>
<path d="M1307.12 372.879V375.66H1377.33V372.879H1307.12Z" fill="#78787A"/>
<path d="M1307.12 368.64V371.421H1375.69V368.64H1307.12Z" fill="#78787A"/>
<path d="M1307.12 363.739V366.786H1382.93V363.739H1307.12Z" fill="#78787A"/>
<path d="M1307.12 359.544V362.591H1377.33V359.544H1307.12Z" fill="#78787A"/>
<path d="M1307.12 355.35V358.132H1375.69V355.35H1307.12Z" fill="#78787A"/>
<path d="M1307.12 328.771V331.552H1382.93V328.771H1307.12Z" fill="#78787A"/>
<path d="M1307.12 333.451V336.232H1377.33V333.451H1307.12Z" fill="#78787A"/>
<path d="M1307.12 337.601V340.647H1375.69V337.601H1307.12Z" fill="#78787A"/>
<path d="M1307.12 342.06V344.842H1382.93V342.06H1307.12Z" fill="#78787A"/>
<path d="M1307.12 346.52V349.301H1377.33V346.52H1307.12Z" fill="#78787A"/>
<path d="M1307.12 350.935V353.716H1375.69V350.935H1307.12Z" fill="#78787A"/>
<path d="M1307.12 324.311V327.358H1382.93V324.311H1307.12Z" fill="#78787A"/>
<path d="M1307.12 320.117V323.163H1377.33V320.117H1307.12Z" fill="#78787A"/>
<path d="M1307.12 315.658V318.704H1375.69V315.658H1307.12Z" fill="#78787A"/>
<path d="M1307.12 311.286V314.068H1382.93V311.286H1307.12Z" fill="#78787A"/>
<path d="M1307.12 307.048V309.608H1377.33V307.048H1307.12Z" fill="#78787A"/>
<path d="M1307.12 302.368V305.414H1375.69V302.368H1307.12Z" fill="#78787A"/>
<path d="M1307.12 276.274V279.32H1382.93V276.274H1307.12Z" fill="#78787A"/>
<path d="M1307.12 280.468V283.515H1377.33V280.468H1307.12Z" fill="#78787A"/>
<path d="M1307.12 285.148V287.93H1375.69V285.148H1307.12Z" fill="#78787A"/>
<path d="M1307.12 289.343V292.125H1382.93V289.343H1307.12Z" fill="#78787A"/>
<path d="M1307.12 294.023V296.805H1377.33V294.023H1307.12Z" fill="#78787A"/>
<path d="M1307.12 298.173V301.22H1375.69V298.173H1307.12Z" fill="#78787A"/>
<path d="M1307.12 271.859V274.419H1382.93V271.859H1307.12Z" fill="#78787A"/>
<path d="M1307.12 267.399V270.181H1377.33V267.399H1307.12Z" fill="#78787A"/>
<path d="M1307.12 263.205V265.986H1375.69V263.205H1307.12Z" fill="#78787A"/>
<path d="M1307.12 258.79V261.571H1382.93V258.79H1307.12Z" fill="#78787A"/>
<path d="M1307.12 254.109V257.156H1377.33V254.109H1307.12Z" fill="#78787A"/>
<path d="M1307.12 249.915V252.697H1375.69V249.915H1307.12Z" fill="#78787A"/>
<path d="M1307.12 223.777V226.338H1382.93V223.777H1307.12Z" fill="#78787A"/>
<path d="M1307.12 228.016V230.797H1377.33V228.016H1307.12Z" fill="#78787A"/>
<path d="M1307.12 232.166V235.212H1375.69V232.166H1307.12Z" fill="#78787A"/>
<path d="M1307.12 236.846V239.893H1382.93V236.846H1307.12Z" fill="#78787A"/>
<path d="M1307.12 241.305V244.087H1377.33V241.305H1307.12Z" fill="#78787A"/>
<path d="M1307.12 245.5V248.281H1375.69V245.5H1307.12Z" fill="#78787A"/>
<path d="M1307.12 219.362V222.144H1382.93V219.362H1307.12Z" fill="#78787A"/>
<path d="M1307.12 214.682V217.728H1377.33V214.682H1307.12Z" fill="#78787A"/>
<path d="M1307.12 210.267V213.048H1375.69V210.267H1307.12Z" fill="#78787A"/>
<path d="M1307.12 206.072V208.854H1382.93V206.072H1307.12Z" fill="#78787A"/>
<path d="M1307.12 201.878V204.659H1377.33V201.878H1307.12Z" fill="#78787A"/>
<path d="M1307.12 196.933V199.979H1375.69V196.933H1307.12Z" fill="#78787A"/>
<path d="M1307.12 170.795V173.841H1382.93V170.795H1307.12Z" fill="#78787A"/>
<path d="M1307.12 175.033V178.08H1377.33V175.033H1307.12Z" fill="#78787A"/>
<path d="M1307.12 179.449V182.495H1375.69V179.449H1307.12Z" fill="#78787A"/>
<path d="M1307.12 184.129V186.91H1382.93V184.129H1307.12Z" fill="#78787A"/>
<path d="M1307.12 188.544V191.104H1377.33V188.544H1307.12Z" fill="#78787A"/>
<path d="M1307.12 192.738V195.785H1375.69V192.738H1307.12Z" fill="#78787A"/>
<path d="M1298.06 259.143C1276.52 259.143 1255.01 257.333 1233.64 254.772C1233.06 254.683 1233.11 255.566 1233.64 255.655C1254.39 258.171 1275.5 253.491 1296.12 257.818C1296.08 257.597 1295.99 257.333 1295.94 257.112C1293.29 259.893 1289.32 261.041 1285.7 261.924C1281.73 262.896 1277.66 263.337 1273.64 263.867C1269.45 264.397 1265.3 265.103 1261.06 265.545C1256.51 266.031 1251.83 266.604 1247.72 268.724C1247.42 268.9 1247.46 269.43 1247.81 269.519C1259.87 271.682 1272.81 267.179 1284.42 272.079C1284.38 271.859 1284.29 271.594 1284.24 271.373C1282.21 273.448 1279.43 274.64 1276.74 275.523C1273.2 276.715 1269.45 277.378 1265.74 277.819C1259.29 278.614 1252.23 278.967 1245.87 277.466C1245.91 277.731 1245.96 277.996 1245.96 278.261C1252.85 274.331 1260.71 272.477 1268.39 270.799C1274.26 269.519 1280.05 268.15 1285.88 266.605C1288.7 265.854 1291.62 265.147 1294.58 264.971C1297 264.794 1299.52 265.192 1301.02 267.355C1302.39 269.386 1300.67 271.814 1299.3 273.316C1297.53 275.258 1295.24 276.804 1292.94 278.04C1291.66 278.746 1290.29 279.364 1288.88 279.674C1289.01 279.938 1289.1 280.203 1289.23 280.468C1291.84 279.364 1294.53 278.393 1297.45 278.349C1297.31 278.216 1297.14 278.04 1297 277.907C1296.87 283.868 1290.25 287.356 1285.26 288.857C1284.73 289.034 1284.9 289.784 1285.43 289.696C1287.29 289.431 1289.28 289.564 1290.91 290.402C1290.91 290.138 1290.91 289.917 1290.91 289.652C1286.72 292.433 1278.9 292.743 1275.81 287.974C1275.76 288.151 1275.72 288.371 1275.68 288.548C1277.93 286.826 1281.55 286.164 1284.24 285.899C1285.61 285.766 1287.38 285.678 1288.53 286.605C1289.63 287.533 1289.45 289.475 1288.88 290.623C1287.55 293.405 1284.02 295.038 1281.37 296.186C1278.77 297.334 1275.99 298.217 1273.16 298.747C1272.67 298.835 1272.81 299.674 1273.29 299.586C1279.08 298.835 1285.43 297.643 1291.13 299.586C1291.04 299.409 1290.91 299.233 1290.82 299.056C1290.2 302.588 1288.75 305.856 1287.64 309.255C1286.58 312.434 1286.45 315.26 1286.72 318.571C1286.8 319.852 1286.98 321.221 1286.8 322.501C1286.58 324.002 1285.21 325.503 1284.15 326.519C1281.64 328.991 1278.24 330.581 1275.28 332.479C1275.01 332.656 1274.97 333.097 1275.28 333.23C1277.53 334.29 1280.05 334.731 1282.3 335.923C1283.54 336.585 1284.24 337.424 1284.29 338.837C1284.33 340.029 1283.93 341.177 1283.23 342.104C1280.49 345.548 1274.26 345.018 1270.51 344.003C1266.09 342.811 1263.58 338.925 1261.94 334.864C1260.09 330.228 1259.51 324.973 1260.4 320.117C1260.88 317.423 1261.99 314.774 1263.84 312.699C1265.87 310.447 1268.57 309.476 1271.53 309.123C1279.74 308.152 1288.61 313.891 1290.51 322.015C1290.65 322.545 1291.44 322.324 1291.35 321.795C1284.95 286.87 1283.23 251.24 1276.03 216.404C1274.04 206.867 1271.66 197.462 1268.65 188.191C1268.48 187.661 1267.73 187.881 1267.82 188.411C1274.4 224.837 1283.54 260.821 1287.2 297.732C1287.95 305.326 1288.75 312.92 1289.45 320.514C1290.2 328.241 1290.69 336.056 1290.12 343.826C1290.07 344.4 1290.95 344.4 1291 343.826C1291.62 335.173 1290.95 326.475 1290.07 317.865C1289.19 309.123 1288.39 300.337 1287.42 291.595C1285.35 273.404 1282.03 255.39 1278.41 237.464C1275.1 221.04 1271.61 204.659 1268.65 188.146C1268.39 188.235 1268.08 188.279 1267.82 188.367C1278.81 222.408 1281.55 258.304 1286.19 293.626C1287.42 303.118 1288.79 312.567 1290.51 321.971C1290.78 321.883 1291.09 321.839 1291.35 321.75C1289.94 315.657 1284.99 311.198 1279.25 309.167C1274.53 307.489 1268.65 307.666 1264.59 310.845C1261.15 313.538 1259.69 318.042 1259.29 322.236C1258.85 327.004 1259.74 331.905 1261.63 336.276C1262.96 339.323 1265.08 342.678 1268.21 344.135C1271.48 345.637 1275.54 345.946 1279.08 345.283C1282.52 344.621 1285.17 342.325 1285.08 338.616C1284.95 334.378 1278.59 333.936 1275.59 332.523C1275.59 332.788 1275.59 333.009 1275.59 333.274C1278.63 331.376 1281.81 329.786 1284.46 327.446C1286.58 325.592 1287.86 323.34 1287.73 320.514C1287.64 318.925 1287.51 317.335 1287.47 315.702C1287.42 313.891 1287.73 312.214 1288.26 310.492C1289.36 306.739 1291.09 303.207 1291.75 299.321C1291.79 299.1 1291.71 298.88 1291.44 298.791C1285.7 296.849 1279.25 297.997 1273.38 298.791C1273.42 299.056 1273.47 299.365 1273.51 299.63C1276.69 299.056 1279.83 297.952 1282.79 296.628C1285.66 295.303 1289.32 293.316 1290.2 289.961C1290.51 288.725 1290.25 287.135 1289.41 286.164C1288.44 285.06 1286.63 285.016 1285.3 285.016C1283.32 285.06 1281.33 285.546 1279.43 286.12C1278.1 286.517 1276.56 287.003 1275.41 287.842C1275.23 287.974 1275.1 288.239 1275.23 288.416C1278.59 293.581 1286.85 293.449 1291.57 290.402C1291.84 290.226 1291.88 289.784 1291.57 289.652C1289.63 288.725 1287.51 288.592 1285.39 288.857C1285.48 289.122 1285.52 289.431 1285.61 289.696C1291 288.107 1297.84 284.309 1298.02 277.952C1298.02 277.731 1297.8 277.51 1297.58 277.51C1294.53 277.554 1291.71 278.57 1288.92 279.762C1288.44 279.983 1288.79 280.645 1289.28 280.557C1293.6 279.585 1298.11 276.495 1300.85 273.095C1301.99 271.682 1302.83 269.916 1302.44 268.062C1302.04 266.251 1300.14 264.927 1298.46 264.397C1296.21 263.735 1293.6 264.132 1291.31 264.529C1288.48 265.015 1285.74 265.766 1283.01 266.56C1276.78 268.326 1270.42 269.43 1264.15 270.931C1257.79 272.433 1251.43 274.287 1245.69 277.51C1245.38 277.687 1245.43 278.216 1245.78 278.305C1252.49 279.894 1259.87 279.453 1266.62 278.614C1270.29 278.172 1273.91 277.422 1277.4 276.274C1280.14 275.347 1282.96 274.11 1284.99 271.991C1285.26 271.726 1285.08 271.373 1284.82 271.285C1273.2 266.384 1260.27 270.887 1248.21 268.724C1248.25 268.989 1248.3 269.254 1248.3 269.519C1252.67 267.267 1257.75 266.825 1262.56 266.295C1266.76 265.854 1270.91 265.103 1275.1 264.574C1279.16 264.044 1283.23 263.514 1287.16 262.498C1290.56 261.615 1294.18 260.335 1296.65 257.73C1296.87 257.509 1296.78 257.068 1296.43 257.023C1275.72 252.652 1254.7 257.333 1233.73 254.816C1233.73 255.125 1233.73 255.39 1233.73 255.699C1255.19 258.26 1276.6 260.07 1298.15 260.07C1298.59 260.026 1298.59 259.143 1298.06 259.143Z" fill="#78787A"/>
<path d="M1216.77 162.45V388.332H1224.85V162.45H1216.77Z" fill="#78787A"/>
<path d="M1189.04 382.68H1186.3V374.115H1189.04V382.68Z" fill="#78787A"/>
<path d="M1189.04 360.648H1186.3V352.083H1189.04V360.648Z" fill="#78787A"/>
<path d="M1189.04 338.572H1186.3V330.007H1189.04V338.572Z" fill="#78787A"/>
<path d="M1189.04 316.541H1186.3V307.975H1189.04V316.541Z" fill="#78787A"/>
<path d="M1189.04 294.464H1186.3V285.899H1189.04V294.464Z" fill="#78787A"/>
<path d="M1189.04 272.389H1186.3V263.823H1189.04V272.389Z" fill="#78787A"/>
<path d="M1189.04 250.356H1186.3V241.791H1189.04V250.356Z" fill="#78787A"/>
<path d="M1189.04 228.281H1186.3V219.715H1189.04V228.281Z" fill="#78787A"/>
<path d="M1189.04 206.205H1186.3V197.639H1189.04V206.205Z" fill="#78787A"/>
<path d="M1189.04 184.173H1186.3V175.607H1189.04V184.173Z" fill="#78787A"/>
<path d="M1146.34 238.7V367.712H1153.36V238.7H1146.34Z" fill="#8D8D8E"/>
<path d="M1132.83 203.467V367.712H1139.85V203.467H1132.83Z" fill="#8D8D8E"/>
<path d="M1161.53 169.205V367.712H1168.29V169.205H1161.53Z" fill="#8D8D8E"/>
<path d="M1136.01 373.099C1138.39 373.099 1140.29 374.998 1140.29 377.382C1140.29 379.766 1138.39 381.665 1136.01 381.665C1133.62 381.665 1131.72 379.766 1131.72 377.382C1131.72 374.998 1133.67 373.099 1136.01 373.099Z" fill="#BC5555"/>
<path d="M1150.14 373.099C1152.52 373.099 1154.42 374.998 1154.42 377.382C1154.42 379.766 1152.52 381.665 1150.14 381.665C1147.75 381.665 1145.85 379.766 1145.85 377.382C1145.85 374.998 1147.75 373.099 1150.14 373.099Z" fill="#BC5555"/>
<path d="M1165.11 373.099C1167.49 373.099 1169.39 374.998 1169.39 377.382C1169.39 379.766 1167.49 381.665 1165.11 381.665C1162.72 381.665 1160.82 379.766 1160.82 377.382C1160.82 374.998 1162.77 373.099 1165.11 373.099Z" fill="#BC5555"/>
<path d="M807.741 706.976C807.741 706.976 651.026 735.896 636.542 769.672C622.059 803.404 711.301 846.806 711.301 846.806C711.301 846.806 783.631 851.618 790.872 839.565C798.07 827.511 807.741 706.976 807.741 706.976Z" fill="#E9C4AC"/>
<path d="M1319.39 555.844L698.893 591.96L716.07 886.94L1336.57 850.824L1319.39 555.844Z" fill="white"/>
<path d="M1231.92 572.401L788.311 598.23L711.963 602.689L716.467 680.22L723.356 798.239L727.771 874.798L804.473 870.339L1247.28 844.554L1323.5 840.139L1319.04 763.491L1312.19 645.914L1307.65 568.03L1231.92 572.401ZM1298.2 760.621C1297.93 760.621 1297.71 760.621 1297.45 760.621C1264.86 762.52 1240 790.468 1241.9 823.052C1241.94 823.405 1241.98 823.803 1242.03 824.156L807.52 849.455C807.52 849.014 807.52 848.616 807.52 848.219C805.621 815.635 777.669 790.777 745.081 792.676C744.64 792.72 744.198 792.764 743.756 792.808L737.354 683.179C737.795 683.134 738.237 683.179 738.678 683.179C771.266 681.28 796.127 653.332 794.228 620.748C794.184 619.997 794.052 619.291 794.008 618.584L1228.65 593.285C1228.65 594.08 1228.6 594.83 1228.65 595.625C1230.55 628.209 1258.5 653.067 1291.09 651.168C1291.35 651.168 1291.57 651.124 1291.84 651.08L1298.2 760.621Z" fill="#60BA78"/>
<path d="M1113.27 715.807C1116.36 768.568 1076.04 813.824 1023.27 816.871C970.504 819.961 925.243 779.65 922.196 726.933C919.105 674.171 959.421 628.916 1012.14 625.869C1064.91 622.778 1110.17 663.045 1113.27 715.807Z" fill="#60BA78"/>
<path d="M1012.37 797.002L1011.35 779.518C998.986 779.695 986.843 777.09 979.601 773.425L983.884 751.57C991.833 755.367 1002.92 758.59 1014.88 757.884C1025.35 757.266 1032.28 752.806 1031.88 745.433C1031.49 738.457 1025.35 734.395 1011.44 730.554C991.391 725.079 977.393 716.646 976.377 698.808C975.45 682.649 986.092 669.271 1005.57 664.281L1004.55 646.797L1022.57 645.738L1023.49 661.941C1035.86 661.765 1044.29 663.884 1050.52 666.445L1046.41 687.55C1041.51 685.828 1032.81 682.075 1019.56 682.825C1007.6 683.532 1004.06 688.874 1004.33 694.04C1004.68 700.089 1011.35 703.577 1027.33 708.566C1049.68 715.012 1059.08 724.593 1060.06 741.15C1061.03 757.531 1050.25 772.189 1029.28 777.09L1030.38 795.854L1012.37 797.002Z" fill="white"/>
<path d="M1320.14 635.715L700.615 585.603L676.814 880.096L1296.3 930.209L1320.14 635.715Z" fill="white"/>
<path d="M1231.21 639.998L788.311 604.146L712.051 597.965L705.781 675.363L696.243 793.161L690.061 869.632L766.63 875.814L1208.73 911.577L1284.82 917.714L1291 841.154L1300.49 723.754L1306.76 646.002L1231.21 639.998ZM1270.82 835.591C1270.55 835.591 1270.33 835.503 1270.07 835.503C1237.52 832.854 1209.04 857.093 1206.39 889.633C1206.35 889.986 1206.39 890.384 1206.35 890.737L772.503 855.636C772.547 855.239 772.635 854.841 772.679 854.4C775.329 821.86 751.086 793.382 718.543 790.733C718.101 790.689 717.659 790.733 717.218 790.689L726.093 681.236C726.535 681.28 726.977 681.368 727.418 681.412C759.962 684.061 788.444 659.822 791.093 627.282C791.137 626.531 791.137 625.825 791.181 625.074L1225.12 660.175C1225.03 660.926 1224.89 661.721 1224.81 662.471C1222.16 695.011 1246.4 723.489 1278.94 726.138C1279.21 726.138 1279.43 726.138 1279.69 726.138L1270.82 835.591Z" fill="#60BA78"/>
<path d="M1093.84 765.61C1089.55 818.284 1043.41 857.535 990.729 853.252C938.049 849.014 898.793 802.83 903.076 750.157C907.315 697.484 953.504 658.233 1006.18 662.515C1058.86 666.798 1098.12 712.937 1093.84 765.61Z" fill="#60BA78"/>
<path d="M982.648 832.059L984.061 814.619C971.785 813.074 960.128 808.791 953.46 804.199L960.702 783.183C968.076 788.04 978.585 792.764 990.552 793.735C1001.02 794.574 1008.52 791.13 1009.1 783.757C1009.67 776.781 1004.15 771.924 990.905 766.229C971.785 758.016 959.112 747.773 960.569 729.936C961.894 713.776 974.302 702.032 994.261 699.78L995.674 682.34L1013.69 683.797L1012.37 699.957C1024.64 701.502 1032.68 704.725 1038.51 708.169L1031.49 728.479C1026.89 726.095 1018.77 721.15 1005.52 720.09C993.599 719.119 989.316 723.975 988.918 729.097C988.432 735.146 994.526 739.517 1009.67 746.669C1030.91 756.162 1038.9 766.935 1037.58 783.492C1036.25 799.828 1023.54 812.853 1002.12 814.84L1000.62 833.561L982.648 832.059Z" fill="white"/>
<path d="M480.005 793.646C563.374 766.846 572.338 753.424 639.325 753.424C706.355 753.424 798.644 795.104 849.293 804.066C899.941 812.985 966.928 799.607 981.809 795.148C996.69 790.688 1063.72 801.108 1057.76 850.249C1054.14 880.273 997.661 891.929 942.067 897.845C942.067 897.845 873.094 900.892 853.753 908.309C834.412 915.771 776.301 930.65 739.076 935.11C739.076 935.11 823.946 927.648 853.753 917.228C876.008 909.413 909.126 904.159 935.62 910.693C913.851 948.664 860.818 1008.14 837.414 1015.51C809.11 1024.43 648.288 999.13 579.8 991.668C543.989 987.783 453.599 992.86 375.484 998.556V807.643C412.488 806.804 450.596 803.095 480.005 793.646Z" fill="#FDD6B7"/>
<path d="M853.753 917.228C823.991 927.648 739.076 935.11 739.076 935.11C776.301 930.651 834.368 915.771 853.753 908.31C873.094 900.848 942.067 897.846 942.067 897.846C940.433 901.731 938.27 906.058 935.576 910.694C909.126 904.159 876.052 909.458 853.753 917.228Z" fill="#E9C4AC"/>
<path d="M502.878 894.843V1017.1C502.878 1029.95 492.413 1040.41 479.563 1040.41H386.479C373.585 1040.41 363.164 1029.99 363.164 1017.1V894.843H394.913H502.878Z" fill="#C0DFDA"/>
<path d="M502.878 772.586V894.843H394.913H363.164V772.586C363.164 759.693 373.585 749.274 386.479 749.274H479.563C492.413 749.274 502.878 759.693 502.878 772.586Z" fill="white"/>
<path d="M449.933 763.535C437.437 763.535 427.281 773.646 427.281 786.141C427.281 798.636 437.437 808.747 449.933 808.747C462.43 808.747 472.586 798.636 472.586 786.141C472.586 773.646 462.474 763.535 449.933 763.535Z" fill="#0A3754"/>
<path d="M0.5 1048.98L399.594 1049.24C407.675 1049.24 414.254 1039.75 414.254 1028.01V895.329L0.5 894.976" fill="#0A3754"/>
<path d="M0.588379 894.975L414.254 895.329V762.652C414.254 750.952 407.675 741.415 399.594 741.415L0.588379 741.15" fill="#104F78"/>
<path d="M1699.72 256.096C1616.31 282.896 1607.39 296.318 1540.4 296.318C1473.41 296.318 1381.08 254.639 1330.43 245.676C1279.78 236.757 1212.8 250.135 1197.91 254.595C1183.03 259.054 1116 248.634 1121.96 199.493C1125.59 169.47 1182.06 157.814 1237.66 151.897C1237.66 151.897 1306.63 148.851 1325.97 141.433C1345.31 133.971 1403.42 119.092 1440.65 114.633C1440.65 114.633 1365.49 134.81 1335.69 145.23C1313.43 153.045 1270.6 145.583 1244.1 139.049C1265.87 101.078 1318.91 41.6055 1342.31 34.2321C1370.61 25.3134 1531.44 50.6125 1599.92 58.0742C1635.74 61.9596 1726.13 56.882 1804.24 51.1864V242.1C1767.24 242.894 1729.13 246.647 1699.72 256.096Z" fill="#FDD6B7"/>
<path d="M1326.28 131.676C1356.04 121.256 1440.96 113.794 1440.96 113.794C1403.73 118.254 1345.67 133.133 1326.28 140.595C1306.94 148.056 1237.97 151.059 1237.97 151.059C1239.6 147.173 1241.76 142.846 1244.46 138.21C1270.95 144.745 1304.02 139.447 1326.28 131.676Z" fill="#E9C4AC"/>
<path d="M1676.85 154.899V32.6425C1676.85 19.7943 1687.31 9.33026 1700.16 9.33026H1793.24C1806.14 9.33026 1816.56 19.7502 1816.56 32.6425V154.899H1784.81H1676.85Z" fill="#C0DFDA"/>
<path d="M1676.85 277.157V154.9H1784.81H1816.56V277.157C1816.56 290.049 1806.14 300.469 1793.24 300.469H1700.16C1687.27 300.469 1676.85 290.049 1676.85 277.157Z" fill="white"/>
<path d="M1729.75 286.208C1742.24 286.208 1752.4 276.097 1752.4 263.602C1752.4 251.107 1742.24 240.996 1729.75 240.996C1717.25 240.996 1707.09 251.107 1707.09 263.602C1707.09 276.097 1717.25 286.208 1729.75 286.208Z" fill="#217F67"/>
<path d="M2208.41 0.764859L1780.09 0.499904C1772 0.499904 1765.43 9.99263 1765.43 21.7371V154.414L2208.41 154.767V0.764859Z" fill="#217F67"/>
<path d="M1765.47 154.414V287.091C1765.47 298.791 1772.05 308.328 1780.13 308.328L2208.37 308.593V154.767L1765.47 154.414Z" fill="#319377"/>
</g>
<defs>
<clipPath id="clip0_778_2">
<rect width="1077" height="2208" fill="white" transform="translate(0.5 1077.5) rotate(-90)"/>
</clipPath>
</defs>
</svg>
